<?xml version="1.0" encoding="UTF-8"?>
<!DOCTYPE svg PUBLIC "-//W3C//DTD SVG 1.1//EN" "http://www.w3.org/Graphics/SVG/1.1/DTD/svg11.dtd">
<!-- Creator: CorelDRAW X7 -->
<svg xmlns="http://www.w3.org/2000/svg" xml:space="preserve" width="73.193mm" height="38.1199mm" version="1.1" style="shape-rendering:geometricPrecision; text-rendering:geometricPrecision; image-rendering:optimizeQuality; fill-rule:evenodd; clip-rule:evenodd"
viewBox="0 0 38578 20092"
 xmlns:xlink="http://www.w3.org/1999/xlink">
 <defs>
  <style type="text/css">
   <![CDATA[
    .fil0 {fill:#939598}
   ]]>
  </style>
 </defs>
 <g id="Capa_x0020_1">
  <metadata id="CorelCorpID_0Corel-Layer"/>
  <g id="_264118464">
   <g>
    <g>
     <path class="fil0" d="M0 0l2904 0c3209,0 5808,2599 5808,5808 0,3208 -2600,5807 -5808,5807l-2904 0 0 -11615zm2904 726l-2178 0 0 10163 2178 0c2787,-15 5052,-2280 5052,-5081 0,-2788 -2265,-5067 -5052,-5082z"/>
    </g>
   </g>
   <g>
    <g>
     <polygon class="fil0" points="10169,0 17429,0 17429,726 10895,726 10895,4356 15977,4356 15977,5081 10895,5081 10895,10889 17429,10889 17429,11615 10169,11615 "/>
    </g>
   </g>
   <g>
    <g>
     <path class="fil0" d="M23575 10889c1422,0 2728,-595 3657,-1568l0 -3513 726 0 0 3716c-1176,1394 -2686,2090 -4354,2090 -3210,0 -5809,-2598 -5809,-5806 0,-3209 2599,-5808 5809,-5808 1668,0 3178,712 4238,1843l-595 465c-930,-972 -2236,-1582 -3672,-1582 -2803,0 -5082,2279 -5082,5081 0,2802 2279,5082 5082,5082z"/>
    </g>
   </g>
   <g>
    <g>
     <path class="fil0" d="M34034 15l4544 11599 -799 0 -1408 -3629 -5474 0 -1393 3629 -814 0 4559 -11599 785 0zm-2846 7244l4906 0 -2452 -6329 -2454 6329z"/>
    </g>
   </g>
  </g>
  <g id="_264126912">
   <path class="fil0" d="M240 14237l381 0c252,0 454,86 606,257 153,172 228,409 228,708 0,306 -76,544 -231,712 -154,168 -352,253 -594,253l-390 0 0 -1930zm224 1734l159 0c183,0 328,-68 435,-204 106,-135 159,-324 159,-565 0,-239 -53,-427 -160,-564 -107,-137 -252,-206 -434,-206l-159 0 0 1539z"/>
   <path class="fil0" d="M2672 16167l-214 0 0 -1241 -419 0 0 -184 633 0 0 1425zm-104 -1964c40,0 74,14 103,43 27,28 42,63 42,103 0,42 -14,77 -42,105 -28,28 -62,42 -103,42 -38,0 -70,-14 -99,-44 -29,-29 -43,-64 -43,-103 0,-39 14,-73 43,-103 29,-29 61,-43 99,-43z"/>
   <path class="fil0" d="M4744 16167l-212 0c-17,-58 -26,-135 -26,-230 -122,178 -286,266 -495,266 -106,0 -200,-37 -280,-112 -81,-76 -121,-173 -121,-291 0,-70 14,-132 43,-186 28,-54 70,-99 124,-136 55,-37 121,-67 199,-88 79,-21 172,-36 280,-44l239 -19 0 -68c0,-245 -114,-368 -341,-368 -55,0 -123,12 -205,36 -83,23 -154,51 -213,82l-56 -153c194,-99 375,-149 542,-149 324,0 487,172 487,516l0 612c0,125 12,235 35,332zm-249 -423l0 -259c-192,17 -324,34 -396,49 -72,15 -133,43 -186,84 -52,41 -78,97 -78,167 0,64 22,115 66,154 45,39 102,59 171,59 76,0 151,-22 226,-68 74,-45 141,-107 197,-186z"/>
   <path class="fil0" d="M5686 15629c-132,65 -199,121 -199,171 0,26 15,49 46,67 30,18 72,27 125,27l480 -13c114,0 202,28 266,83 64,56 95,135 95,237 0,161 -72,290 -216,385 -144,97 -312,144 -505,144 -158,0 -286,-33 -387,-99 -100,-67 -150,-152 -150,-256 0,-115 78,-211 232,-289 -128,-61 -192,-134 -192,-221 0,-101 82,-195 249,-281 -77,-47 -136,-107 -178,-180 -40,-75 -61,-152 -61,-235 0,-133 46,-244 137,-330 91,-86 205,-129 342,-129 98,0 187,20 267,61l423 -64 0 208 -273 0c41,72 62,157 62,254 0,130 -45,239 -136,329 -90,89 -204,134 -343,134 -30,0 -57,-1 -84,-3zm92 935c140,0 260,-31 359,-93 100,-63 149,-140 149,-232 0,-95 -71,-143 -211,-143 -47,0 -127,3 -241,9 -72,4 -128,6 -170,6 -20,0 -51,16 -93,49 -42,33 -75,66 -97,99 -23,33 -34,67 -34,103 0,56 31,104 93,143 62,40 144,59 245,59zm-8 -1098c78,0 142,-27 192,-81 50,-55 75,-126 75,-213 0,-92 -24,-164 -73,-216 -48,-52 -113,-78 -194,-78 -76,0 -139,27 -191,81 -51,55 -77,126 -77,213 0,85 26,157 77,211 52,56 115,83 191,83z"/>
   <path class="fil0" d="M8070 16167l-212 0 0 -914c0,-127 -21,-219 -61,-276 -41,-57 -105,-86 -191,-86 -131,0 -271,82 -421,244l0 1031 -213 0 0 -1425 213 0 0 209c153,-162 315,-243 484,-243 268,0 401,161 401,484l0 976z"/>
   <path class="fil0" d="M9199 14707c196,0 352,68 468,205 115,137 174,317 174,541 0,225 -59,406 -174,544 -116,138 -271,206 -468,206 -197,0 -353,-68 -469,-205 -115,-138 -172,-319 -172,-545 0,-225 57,-405 174,-541 115,-137 271,-205 467,-205zm0 1311c129,0 232,-55 307,-165 74,-109 112,-242 112,-397 0,-165 -37,-299 -111,-406 -74,-105 -177,-159 -308,-159 -132,0 -235,53 -307,158 -74,104 -110,239 -110,407 0,158 37,291 110,400 75,107 177,162 307,162zm382 -1857l-428 412 -152 0 271 -412 309 0z"/>
   <path class="fil0" d="M11284 14945c-120,-39 -233,-59 -338,-59 -116,0 -209,20 -275,58 -67,39 -101,91 -101,155 0,41 15,77 46,108 31,31 93,59 186,86l204 58c94,27 170,58 230,95 59,37 103,82 133,134 30,53 44,114 44,183 0,136 -57,243 -170,322 -115,79 -260,118 -436,118 -175,0 -319,-26 -433,-79l41 -184c119,56 247,84 384,84 118,0 215,-21 289,-66 75,-44 112,-103 112,-176 0,-49 -18,-93 -55,-132 -37,-39 -124,-79 -262,-121 -109,-33 -191,-58 -243,-76 -51,-16 -100,-41 -144,-74 -45,-33 -79,-72 -103,-118 -23,-45 -34,-96 -34,-153 0,-123 54,-221 161,-293 108,-71 251,-108 428,-108 115,0 243,20 383,59l-47 179z"/>
   <path class="fil0" d="M13127 16102c-143,66 -284,99 -422,99 -254,0 -382,-135 -382,-404l0 -871 -273 0 0 -185 273 0 0 -390 208 0 0 390 485 0 0 185 -485 0 0 815c0,87 20,154 57,202 39,48 91,72 156,72 117,0 232,-26 347,-79l36 166z"/>
   <path class="fil0" d="M14439 16167l-213 0 0 -1241 -421 0 0 -184 634 0 0 1425zm-104 -1964c40,0 74,14 103,43 28,28 42,63 42,103 0,42 -14,77 -42,105 -28,28 -61,42 -103,42 -38,0 -70,-14 -99,-44 -29,-29 -43,-64 -43,-103 0,-39 14,-73 43,-103 29,-29 61,-43 99,-43z"/>
   <path class="fil0" d="M16470 16119c-124,57 -260,84 -409,84 -224,0 -403,-68 -537,-204 -133,-136 -199,-317 -199,-543 0,-227 66,-408 200,-544 135,-137 312,-205 531,-205 142,0 280,25 409,75l-57 177c-129,-45 -246,-68 -349,-68 -157,0 -282,51 -373,153 -91,101 -137,238 -137,412 0,158 47,291 142,400 95,107 218,162 370,162 120,0 244,-24 372,-70l37 171z"/>
   <path class="fil0" d="M17605 14707c195,0 352,68 467,205 115,137 174,317 174,541 0,225 -59,406 -174,544 -115,138 -272,206 -467,206 -197,0 -354,-68 -469,-205 -115,-138 -173,-319 -173,-545 0,-225 58,-405 174,-541 115,-137 272,-205 468,-205zm0 1311c129,0 230,-55 306,-165 74,-109 112,-242 112,-397 0,-165 -37,-299 -111,-406 -74,-105 -176,-159 -307,-159 -133,0 -236,53 -309,158 -72,104 -109,239 -109,407 0,158 38,291 111,400 74,107 176,162 307,162z"/>
   <polygon class="fil0" points="21485,16167 20477,16167 20477,14237 21476,14237 21476,14432 20700,14432 20700,15030 21447,15030 21447,15226 20700,15226 20700,15971 21485,15971 21485,16167 "/>
   <path class="fil0" d="M23312 16167l-214 0 0 -936c0,-226 -41,-340 -125,-340 -43,0 -90,40 -142,118 -52,78 -77,121 -77,129l0 1029 -212 0 0 -936c0,-226 -42,-340 -127,-340 -43,0 -89,40 -141,118 -51,78 -77,121 -77,129l0 1029 -213 0 0 -1426 205 0 0 215c40,-76 87,-136 143,-181 55,-45 110,-68 164,-68 58,0 109,23 155,68 46,45 77,105 95,181 40,-76 88,-136 143,-181 56,-45 110,-68 164,-68 173,0 259,154 259,463l0 997 0 0z"/>
   <path class="fil0" d="M23996 14926c47,-66 112,-119 192,-159 81,-40 166,-60 255,-60 165,0 293,67 386,203 94,135 141,312 141,529 0,218 -49,401 -147,546 -98,145 -231,218 -396,218 -88,0 -172,-22 -249,-66 -76,-44 -137,-102 -182,-176l0 769 -213 0 0 -1989 212 0 0 185 1 0zm0 212l0 593c39,79 95,147 163,200 68,54 138,81 212,81 115,0 206,-54 274,-161 67,-109 102,-242 102,-401 0,-164 -32,-299 -97,-402 -65,-104 -156,-157 -271,-157 -150,0 -278,83 -383,247z"/>
   <path class="fil0" d="M26584 14780l-86 205c-94,-41 -175,-62 -244,-62 -63,0 -125,19 -184,55 -61,35 -116,87 -166,154 -51,67 -77,104 -77,113l0 922 -212 0 0 -1425 212 0 0 288c114,-216 262,-323 444,-323 107,0 211,24 313,73z"/>
   <path class="fil0" d="M28285 15461l-978 0c0,161 47,295 141,399 93,105 207,157 344,157 128,0 262,-23 400,-70l37 172c-125,57 -273,84 -440,84 -212,0 -383,-68 -511,-204 -131,-136 -195,-319 -195,-549 0,-226 59,-407 175,-541 116,-134 266,-202 450,-202 164,0 301,62 412,188 110,124 165,291 165,499l1 67 -1 0zm-232 -174c0,-111 -36,-205 -105,-281 -69,-76 -146,-115 -232,-115 -110,0 -201,37 -274,110 -72,74 -113,169 -121,286l732 0z"/>
   <path class="fil0" d="M29775 14945c-119,-39 -233,-59 -338,-59 -116,0 -208,20 -275,58 -68,39 -101,91 -101,155 0,41 15,77 46,108 31,31 93,59 187,86l204 58c93,27 169,58 229,95 59,37 103,82 134,134 29,53 44,114 44,183 0,136 -58,243 -172,322 -113,79 -259,118 -435,118 -174,0 -319,-26 -433,-79l42 -184c119,56 247,84 383,84 119,0 216,-21 290,-66 75,-44 112,-103 112,-176 0,-49 -19,-93 -56,-132 -37,-39 -124,-79 -260,-121 -110,-33 -192,-58 -244,-76 -52,-16 -100,-41 -145,-74 -45,-33 -79,-72 -102,-118 -23,-45 -35,-96 -35,-153 0,-123 54,-221 161,-293 108,-71 251,-108 428,-108 116,0 243,20 384,59l-48 179z"/>
   <path class="fil0" d="M31640 16167l-212 0c-17,-58 -26,-135 -26,-230 -121,178 -286,266 -495,266 -106,0 -199,-37 -280,-112 -80,-76 -120,-173 -120,-291 0,-70 13,-132 42,-186 28,-54 70,-99 124,-136 55,-37 122,-67 201,-88 78,-21 171,-36 278,-44l240 -19 0 -68c0,-245 -115,-368 -342,-368 -54,0 -122,12 -204,36 -84,23 -154,51 -214,82l-56 -153c195,-99 376,-149 542,-149 325,0 487,172 487,516l0 612c0,125 12,235 35,332zm-248 -423l0 -259c-193,17 -325,34 -396,49 -72,15 -134,43 -187,84 -52,41 -78,97 -78,167 0,64 22,115 67,154 44,39 101,59 171,59 76,0 150,-22 226,-68 74,-45 139,-107 197,-186z"/>
   <path class="fil0" d="M33308 14780l-87 205c-94,-41 -174,-62 -243,-62 -62,0 -124,19 -184,55 -60,35 -116,87 -167,154 -50,67 -76,104 -76,113l0 922 -212 0 0 -1425 212 0 0 288c114,-216 262,-323 444,-323 107,0 211,24 313,73z"/>
   <path class="fil0" d="M34611 16167l-213 0 0 -1241 -419 0 0 -184 632 0 0 1425zm-104 -1964c40,0 74,14 103,43 28,28 42,63 42,103 0,42 -13,77 -41,105 -29,28 -62,42 -104,42 -37,0 -69,-14 -99,-44 -28,-29 -42,-64 -42,-103 0,-39 14,-73 42,-103 30,-29 62,-43 99,-43z"/>
   <path class="fil0" d="M36684 16167l-212 0c-18,-58 -26,-135 -26,-230 -122,178 -287,266 -495,266 -107,0 -199,-37 -280,-112 -81,-76 -122,-173 -122,-291 0,-70 15,-132 42,-186 29,-54 70,-99 125,-136 56,-37 121,-67 201,-88 78,-21 171,-36 279,-44l239 -19 0 -68c0,-245 -114,-368 -342,-368 -54,0 -123,12 -205,36 -83,23 -153,51 -213,82l-56 -153c195,-99 375,-149 542,-149 325,0 487,172 487,516l0 612c0,125 11,235 36,332zm-249 -423l0 -259c-193,17 -325,34 -396,49 -72,15 -134,43 -187,84 -52,41 -78,97 -78,167 0,64 22,115 68,154 43,39 101,59 170,59 76,0 151,-22 225,-68 76,-45 141,-107 198,-186z"/>
   <polygon class="fil0" points="38226,16167 37642,16167 37642,14421 37270,14421 37270,14237 37856,14237 37856,15982 38226,15982 38226,16167 "/>
   <path class="fil0" d="M1417 19391c-158,116 -333,174 -525,174 -251,0 -441,-85 -570,-255 -129,-170 -194,-419 -194,-746 0,-317 62,-563 188,-739 125,-176 317,-264 576,-264 93,0 186,12 277,35 91,25 164,56 220,96l-74 176c-128,-73 -269,-110 -423,-110 -176,0 -308,65 -396,195 -86,129 -130,333 -130,611 0,537 175,804 526,804 133,0 232,-27 300,-84l0 -476 -348 0 0 -193 573 0 0 776 0 0z"/>
   <path class="fil0" d="M3063 19528l-212 0c-17,-57 -26,-134 -26,-230 -121,178 -287,267 -495,267 -106,0 -200,-38 -280,-113 -81,-75 -121,-172 -121,-291 0,-70 14,-132 43,-186 28,-54 69,-99 124,-136 55,-37 122,-66 200,-87 79,-22 171,-37 279,-45l239 -19 0 -68c0,-245 -114,-367 -342,-367 -54,0 -121,11 -204,35 -83,23 -153,50 -213,83l-56 -153c194,-100 375,-150 542,-150 324,0 487,172 487,516l0 613c0,124 11,234 35,331zm-249 -423l0 -258c-192,17 -324,34 -396,48 -71,15 -133,44 -186,84 -52,42 -78,97 -78,167 0,64 21,116 66,155 45,40 102,59 171,59 76,0 152,-23 226,-68 75,-45 140,-107 197,-187z"/>
   <path class="fil0" d="M3824 18288c47,-66 111,-119 192,-159 80,-40 165,-60 255,-60 166,0 295,66 387,199 93,133 140,308 140,525 0,220 -50,404 -148,551 -99,148 -231,221 -395,221 -89,0 -172,-22 -249,-66 -77,-44 -138,-103 -183,-176l0 205 -213 0 0 -1930 213 0 0 690 1 0zm0 212l0 592c40,80 94,147 162,201 69,54 140,80 213,80 114,0 206,-54 273,-164 68,-109 102,-244 102,-404 0,-164 -32,-297 -97,-399 -64,-102 -155,-153 -271,-153 -150,0 -277,82 -382,247z"/>
   <path class="fil0" d="M6034 19528l-214 0 0 -1240 -420 0 0 -185 634 0 0 1425zm-104 -1964c40,0 74,14 103,43 28,28 42,63 42,103 0,42 -14,77 -42,106 -28,28 -62,42 -103,42 -37,0 -70,-15 -100,-44 -28,-30 -42,-64 -42,-104 0,-39 14,-73 42,-102 30,-30 62,-44 100,-44z"/>
   <path class="fil0" d="M8070 19528l-212 0 0 -914c0,-127 -21,-218 -61,-275 -41,-57 -105,-86 -191,-86 -131,0 -271,81 -421,244l0 1031 -213 0 0 -1425 213 0 0 209c153,-162 315,-243 484,-243 268,0 401,161 401,484l0 975z"/>
   <path class="fil0" d="M9794 18822l-978 0c0,162 47,295 140,400 94,105 208,157 344,157 130,0 263,-23 401,-70l38 171c-127,57 -274,85 -442,85 -211,0 -382,-68 -511,-204 -130,-136 -194,-319 -194,-550 0,-226 57,-406 174,-540 116,-135 267,-202 451,-202 164,0 301,62 411,187 111,125 166,291 166,500l0 66zm-233 -174c0,-111 -34,-205 -103,-281 -70,-76 -147,-114 -233,-114 -110,0 -202,37 -274,110 -73,72 -113,168 -121,285l731 0z"/>
   <path class="fil0" d="M11446 19464c-143,66 -283,98 -422,98 -255,0 -382,-134 -382,-404l0 -870 -273 0 0 -185 273 0 0 -390 207 0 0 390 485 0 0 185 -485 0 0 815c0,86 20,154 58,201 39,48 91,72 156,72 117,0 232,-26 346,-78l37 166z"/>
   <path class="fil0" d="M13156 18822l-977 0c0,162 46,295 139,400 94,105 208,157 345,157 129,0 262,-23 400,-70l37 171c-126,57 -273,85 -440,85 -212,0 -382,-68 -512,-204 -130,-136 -194,-319 -194,-550 0,-226 58,-406 174,-540 116,-135 266,-202 451,-202 164,0 302,62 412,187 109,125 165,291 165,500l0 66zm-232 -174c0,-111 -35,-205 -105,-281 -68,-76 -146,-114 -232,-114 -110,0 -202,37 -274,110 -73,72 -113,168 -121,285l732 0z"/>
   <path class="fil0" d="M16540 18103l-540 1425c-79,210 -156,356 -234,439 -76,83 -164,125 -263,125 -88,0 -174,-17 -260,-48l36 -171c69,21 131,32 186,32 77,0 139,-29 189,-88 49,-60 98,-157 148,-292l-534 -1422 232 0 404 1136 403 -1136 233 0 0 0z"/>
   <path class="fil0" d="M20054 19528l-235 0 -214 -676 -633 0 -216 676 -233 0 631 -1930 270 0 630 1930zm-513 -871l-253 -799 -252 799 505 0z"/>
   <path class="fil0" d="M21518 19528l-212 0 0 -914c0,-127 -21,-218 -61,-275 -41,-57 -105,-86 -191,-86 -130,0 -271,81 -420,244l0 1031 -214 0 0 -1425 214 0 0 209c153,-162 315,-243 484,-243 267,0 400,161 400,484l0 975z"/>
   <path class="fil0" d="M23235 19528l-211 0c-17,-57 -27,-134 -27,-230 -121,178 -286,267 -495,267 -106,0 -199,-38 -279,-113 -81,-75 -121,-172 -121,-291 0,-70 13,-132 42,-186 28,-54 69,-99 124,-136 55,-37 121,-66 200,-87 79,-22 171,-37 279,-45l240 -19 0 -68c0,-245 -115,-367 -342,-367 -54,0 -122,11 -205,35 -83,23 -153,50 -213,83l-55 -153c194,-100 374,-150 541,-150 325,0 487,172 487,516l0 613c0,124 12,234 35,331zm-248 -423l0 -258c-193,17 -325,34 -396,48 -73,15 -134,44 -187,84 -52,42 -78,97 -78,167 0,64 22,116 67,155 44,40 102,59 171,59 75,0 150,-23 225,-68 75,-45 141,-107 198,-187zm77 -1582l-428 411 -153 0 271 -411 310 0z"/>
   <polygon class="fil0" points="24777,19528 24194,19528 24194,17782 23822,17782 23822,17598 24407,17598 24407,19343 24777,19343 24777,19528 "/>
   <path class="fil0" d="M26206 19528l-213 0 0 -1240 -420 0 0 -185 633 0 0 1425zm-104 -1964c40,0 75,14 103,43 28,28 42,63 42,103 0,42 -13,77 -42,106 -27,28 -62,42 -103,42 -37,0 -70,-15 -99,-44 -29,-30 -43,-64 -43,-104 0,-39 14,-73 43,-102 29,-30 62,-44 99,-44z"/>
   <path class="fil0" d="M28094 18307c-120,-40 -232,-59 -338,-59 -116,0 -208,19 -275,58 -68,39 -101,90 -101,155 0,41 15,77 46,108 31,30 93,59 186,85l204 59c94,26 170,58 230,95 59,37 104,82 133,134 29,52 45,113 45,183 0,135 -58,243 -171,322 -114,79 -259,119 -435,119 -176,0 -320,-27 -434,-80l42 -185c118,57 247,85 383,85 119,0 215,-22 289,-66 75,-45 112,-103 112,-176 0,-49 -19,-93 -55,-132 -37,-38 -125,-79 -261,-121 -110,-34 -191,-59 -243,-76 -52,-17 -101,-42 -145,-74 -44,-33 -79,-73 -103,-118 -22,-45 -33,-97 -33,-153 0,-124 52,-221 161,-293 107,-72 250,-108 428,-108 114,0 242,20 382,58l-47 180z"/>
   <path class="fil0" d="M29569 19528l-214 0 0 -1240 -420 0 0 -185 634 0 0 1425zm-105 -1964c40,0 74,14 103,43 28,28 42,63 42,103 0,42 -13,77 -41,106 -28,28 -62,42 -104,42 -37,0 -70,-15 -99,-44 -28,-30 -43,-64 -43,-104 0,-39 15,-73 43,-102 29,-30 62,-44 99,-44z"/>
   <path class="fil0" d="M31455 18307c-119,-40 -231,-59 -337,-59 -116,0 -207,19 -275,58 -68,39 -101,90 -101,155 0,41 15,77 46,108 32,30 94,59 186,85l204 59c94,26 170,58 230,95 59,37 103,82 133,134 29,52 45,113 45,183 0,135 -58,243 -172,322 -114,79 -258,119 -434,119 -176,0 -320,-27 -434,-80l41 -185c120,57 248,85 384,85 119,0 215,-22 290,-66 74,-45 111,-103 111,-176 0,-49 -18,-93 -55,-132 -37,-38 -123,-79 -260,-121 -111,-34 -193,-59 -244,-76 -52,-17 -101,-42 -145,-74 -45,-33 -79,-73 -102,-118 -23,-45 -35,-97 -35,-153 0,-124 54,-221 161,-293 108,-72 250,-108 429,-108 115,0 242,20 382,58l-48 180z"/>
  </g>
 </g>
</svg>
