<?xml version="1.0" encoding="UTF-8"?>
<!DOCTYPE svg PUBLIC "-//W3C//DTD SVG 1.1//EN" "http://www.w3.org/Graphics/SVG/1.1/DTD/svg11.dtd">
<!-- Creator: CorelDRAW X7 -->
<svg xmlns="http://www.w3.org/2000/svg" xml:space="preserve" width="147.145mm" height="74.0835mm" version="1.1" style="shape-rendering:geometricPrecision; text-rendering:geometricPrecision; image-rendering:optimizeQuality; fill-rule:evenodd; clip-rule:evenodd"
viewBox="0 0 14563 7332"
 xmlns:xlink="http://www.w3.org/1999/xlink">
 <defs>
  <style type="text/css">
   <![CDATA[
    .fil4 {fill:#3CBFBA}
    .fil8 {fill:#41C3D7}
    .fil9 {fill:#4CBFA8}
    .fil6 {fill:#58AAA6}
    .fil5 {fill:#6ACAD3}
    .fil2 {fill:#6DC9C6}
    .fil7 {fill:#6DC9CB}
    .fil10 {fill:#70CAC9}
    .fil3 {fill:#7BCBBA}
    .fil0 {fill:#939598}
    .fil11 {fill:#B7E2E4}
    .fil1 {fill:#E0E1E2}
   ]]>
  </style>
 </defs>
 <g id="Capa_x0020_1">
  <metadata id="CorelCorpID_0Corel-Layer"/>
  <g id="Layer_3">
   <g>
    <g>
     <g>
      <path class="fil0" d="M7319 1783l545 0c603,0 1091,488 1091,1090 0,603 -488,1091 -1091,1091l-545 0 0 -2181zm545 136l-409 0 0 1908 409 0c523,-2 949,-428 949,-954 0,-523 -426,-951 -949,-954z"/>
     </g>
    </g>
    <g>
     <g>
      <polygon class="fil0" points="9228,1783 10591,1783 10591,1919 9365,1919 9365,2601 10319,2601 10319,2737 9365,2737 9365,3827 10591,3827 10591,3964 9228,3964 "/>
     </g>
    </g>
    <g>
     <g>
      <path class="fil0" d="M11745 3827c268,0 513,-111 687,-294l0 -660 137 0 0 698c-221,262 -505,393 -818,393 -603,0 -1091,-488 -1091,-1091 0,-602 488,-1090 1091,-1090 313,0 597,133 796,346l-112 87c-175,-182 -420,-297 -689,-297 -527,0 -955,428 -955,954 0,526 428,954 954,954z"/>
     </g>
    </g>
    <g>
     <g>
      <path class="fil0" d="M13709 1786l854 2178 -150 0 -265 -682 -1028 0 -261 682 -153 0 856 -2178 147 0zm-534 1360l921 0 -460 -1189 -461 1189z"/>
     </g>
    </g>
   </g>
   <g>
    <path class="fil0" d="M7364 4456l71 0c48,0 86,16 114,48 29,33 43,77 43,133 0,58 -14,102 -43,134 -29,32 -66,47 -112,47l-73 0 0 -362zm42 326l30 0c34,0 62,-13 81,-39 20,-25 30,-61 30,-106 0,-45 -10,-80 -30,-106 -20,-25 -47,-38 -81,-38l-30 0 0 289z"/>
    <path class="fil0" d="M7821 4818l-41 0 0 -233 -78 0 0 -34 119 0 0 267zm-20 -368c8,0 14,2 19,8 5,5 8,12 8,19 0,8 -2,15 -8,20 -5,5 -11,8 -19,8 -7,0 -13,-3 -19,-9 -5,-5 -8,-12 -8,-19 0,-7 3,-14 8,-19 6,-6 12,-8 19,-8z"/>
    <path class="fil0" d="M8210 4818l-40 0c-3,-10 -5,-25 -5,-43 -23,34 -54,50 -93,50 -20,0 -37,-7 -53,-21 -15,-14 -22,-32 -22,-54 0,-14 2,-25 8,-35 5,-10 13,-19 23,-26 10,-7 23,-12 38,-16 14,-4 32,-7 52,-9l45 -3 0 -13c0,-46 -21,-69 -64,-69 -10,0 -23,2 -39,7 -15,4 -29,9 -40,15l-10 -29c36,-18 70,-28 102,-28 61,0 91,33 91,97l0 115c0,24 2,44 7,62zm-47 -79l0 -49c-36,4 -61,7 -75,10 -13,2 -24,8 -34,15 -10,8 -15,19 -15,32 0,12 4,21 12,29 9,7 20,11 33,11 14,0 28,-4 42,-13 14,-8 26,-20 37,-35z"/>
    <path class="fil0" d="M8387 4717c-25,13 -38,23 -38,33 0,4 3,9 9,12 5,4 13,5 23,5l90 -2c22,0 38,5 50,15 12,11 18,26 18,45 0,30 -13,54 -40,72 -27,18 -59,27 -95,27 -30,0 -54,-6 -73,-18 -19,-13 -28,-29 -28,-49 0,-21 15,-39 44,-54 -25,-11 -37,-25 -37,-41 0,-19 16,-37 47,-53 -14,-9 -25,-20 -33,-34 -8,-14 -12,-28 -12,-44 0,-25 9,-46 26,-62 17,-16 39,-24 64,-24 19,0 35,4 50,11l80 -12 0 39 -51 0c7,14 11,30 11,48 0,24 -8,45 -25,62 -17,16 -39,25 -65,25 -5,0 -10,0 -15,-1zm17 176c26,0 49,-6 67,-17 19,-12 28,-27 28,-44 0,-18 -13,-27 -39,-27 -9,0 -24,1 -46,2 -13,0 -24,1 -32,1 -3,0 -9,3 -17,9 -8,6 -14,13 -18,19 -5,6 -7,12 -7,19 0,11 6,20 18,27 11,7 27,11 46,11zm-2 -206c15,0 27,-5 36,-15 10,-11 14,-24 14,-40 0,-18 -4,-31 -13,-41 -9,-10 -21,-15 -37,-15 -14,0 -26,5 -36,16 -9,10 -14,23 -14,40 0,16 5,29 14,39 10,11 22,16 36,16z"/>
    <path class="fil0" d="M8834 4818l-40 0 0 -171c0,-24 -4,-41 -11,-52 -8,-11 -20,-16 -36,-16 -25,0 -51,15 -79,46l0 193 -40 0 0 -267 40 0 0 39c29,-30 59,-46 91,-46 50,0 75,31 75,91l0 183z"/>
    <path class="fil0" d="M9046 4544c37,0 66,13 88,39 22,26 33,59 33,101 0,43 -11,77 -33,103 -22,25 -51,38 -88,38 -37,0 -66,-13 -88,-38 -21,-26 -32,-60 -32,-103 0,-42 11,-76 32,-101 22,-26 51,-39 88,-39zm0 246c24,0 44,-10 58,-30 14,-21 21,-46 21,-75 0,-31 -7,-56 -21,-76 -14,-20 -33,-30 -58,-30 -25,0 -44,10 -58,29 -13,20 -20,45 -20,77 0,30 7,55 21,75 14,20 33,30 57,30zm72 -348l-80 77 -29 0 51 -77 58 0z"/>
    <path class="fil0" d="M9438 4589c-23,-7 -44,-11 -64,-11 -22,0 -39,4 -51,11 -13,7 -19,17 -19,29 0,8 2,14 8,20 6,6 18,11 35,16l38 11c18,5 32,11 44,18 11,7 19,15 25,25 5,10 8,22 8,35 0,25 -11,45 -32,60 -22,15 -49,22 -82,22 -33,0 -60,-5 -81,-15l7 -34c23,10 47,16 73,16 22,0 40,-4 54,-13 14,-8 21,-19 21,-33 0,-9 -4,-17 -11,-25 -6,-7 -23,-14 -49,-22 -20,-7 -36,-11 -45,-15 -10,-3 -19,-7 -27,-14 -9,-6 -15,-13 -20,-22 -4,-8 -6,-18 -6,-28 0,-24 10,-42 30,-55 20,-14 47,-21 81,-21 21,0 45,4 72,11l-9 34z"/>
    <path class="fil0" d="M9784 4806c-27,13 -54,19 -80,19 -47,0 -71,-25 -71,-76l0 -164 -52 0 0 -34 52 0 0 -74 39 0 0 74 91 0 0 34 -91 0 0 153c0,17 4,29 11,38 7,9 17,14 29,14 22,0 43,-5 65,-15l7 31z"/>
    <path class="fil0" d="M10030 4818l-40 0 0 -233 -79 0 0 -34 119 0 0 267zm-19 -368c7,0 14,2 19,8 5,5 8,12 8,19 0,8 -3,15 -8,20 -5,5 -12,8 -19,8 -8,0 -14,-3 -19,-9 -5,-5 -8,-12 -8,-19 0,-7 3,-14 8,-19 5,-6 11,-8 19,-8z"/>
    <path class="fil0" d="M10411 4809c-23,11 -48,16 -76,16 -42,0 -76,-13 -101,-38 -25,-26 -38,-60 -38,-102 0,-43 13,-77 38,-102 25,-26 59,-39 100,-39 26,0 52,5 76,14l-10 34c-24,-9 -46,-13 -66,-13 -29,0 -53,10 -70,29 -17,19 -26,44 -26,77 0,30 9,55 27,75 18,20 41,30 70,30 22,0 46,-4 70,-13l6 32z"/>
    <path class="fil0" d="M10624 4544c37,0 67,13 88,39 22,26 33,59 33,101 0,43 -11,77 -33,103 -21,25 -51,38 -88,38 -36,0 -66,-13 -88,-38 -21,-26 -32,-60 -32,-103 0,-42 11,-76 33,-101 21,-26 51,-39 87,-39zm0 246c25,0 44,-10 58,-30 14,-21 21,-46 21,-75 0,-31 -7,-56 -21,-76 -14,-20 -33,-30 -58,-30 -24,0 -44,10 -57,29 -14,20 -21,45 -21,77 0,30 7,55 21,75 14,20 33,30 57,30z"/>
    <polygon class="fil0" points="11353,4818 11164,4818 11164,4456 11351,4456 11351,4493 11206,4493 11206,4605 11346,4605 11346,4642 11206,4642 11206,4782 11353,4782 11353,4818 "/>
    <path class="fil0" d="M11696 4818l-40 0 0 -175c0,-43 -8,-64 -23,-64 -9,0 -17,7 -27,22 -10,15 -15,23 -15,24l0 193 -39 0 0 -175c0,-43 -8,-64 -24,-64 -8,0 -17,7 -27,22 -9,15 -14,23 -14,24l0 193 -40 0 0 -267 38 0 0 40c8,-14 17,-26 27,-34 10,-8 21,-13 31,-13 11,0 20,5 29,13 9,8 15,20 18,34 7,-14 16,-26 27,-34 10,-8 20,-13 31,-13 32,0 48,29 48,87l0 187 0 0z"/>
    <path class="fil0" d="M11825 4585c8,-12 21,-22 36,-29 15,-8 31,-12 48,-12 31,0 55,13 72,38 18,26 26,59 26,100 0,41 -9,75 -27,102 -19,28 -43,41 -75,41 -16,0 -32,-4 -46,-12 -15,-9 -26,-19 -34,-33l0 144 -40 0 0 -373 40 0 0 34 0 0zm0 40l0 111c7,15 17,28 30,38 13,10 26,15 40,15 22,0 39,-10 51,-30 13,-20 20,-45 20,-75 0,-31 -6,-56 -19,-76 -12,-19 -29,-29 -50,-29 -29,0 -53,15 -72,46z"/>
    <path class="fil0" d="M12311 4558l-17 38c-17,-7 -32,-11 -45,-11 -12,0 -24,3 -35,10 -11,7 -22,17 -31,29 -10,13 -15,20 -15,21l0 173 -39 0 0 -267 39 0 0 54c22,-41 50,-61 84,-61 20,0 39,5 59,14z"/>
    <path class="fil0" d="M12630 4686l-184 0c0,30 9,55 27,75 17,19 39,29 64,29 24,0 50,-4 76,-13l6 32c-23,11 -51,16 -82,16 -40,0 -72,-13 -96,-38 -25,-26 -37,-60 -37,-103 0,-43 11,-77 33,-102 22,-25 50,-38 85,-38 30,0 56,12 77,36 21,23 31,54 31,93l0 13 0 0zm-44 -33c0,-21 -6,-38 -19,-53 -13,-14 -28,-21 -44,-21 -21,0 -38,7 -51,21 -14,13 -22,31 -23,53l137 0z"/>
    <path class="fil0" d="M12910 4589c-23,-7 -44,-11 -64,-11 -22,0 -39,4 -51,11 -13,7 -19,17 -19,29 0,8 2,14 8,20 6,6 18,11 35,16l39 11c17,5 32,11 43,18 11,7 19,15 25,25 5,10 8,22 8,35 0,25 -11,45 -32,60 -21,15 -49,22 -82,22 -33,0 -60,-5 -81,-15l8 -34c22,10 46,16 72,16 22,0 40,-4 54,-13 14,-8 21,-19 21,-33 0,-9 -4,-17 -10,-25 -7,-7 -24,-14 -49,-22 -21,-7 -36,-11 -46,-15 -10,-3 -19,-7 -27,-14 -9,-6 -15,-13 -19,-22 -5,-8 -7,-18 -7,-28 0,-24 10,-42 30,-55 21,-14 47,-21 81,-21 21,0 45,4 72,11l-9 34z"/>
    <path class="fil0" d="M13260 4818l-40 0c-3,-10 -5,-25 -5,-43 -22,34 -53,50 -93,50 -20,0 -37,-7 -52,-21 -15,-14 -23,-32 -23,-54 0,-14 3,-25 8,-35 5,-10 13,-19 23,-26 11,-7 23,-12 38,-16 15,-4 32,-7 52,-9l45 -3 0 -13c0,-46 -21,-69 -64,-69 -10,0 -23,2 -38,7 -16,4 -29,9 -40,15l-11 -29c37,-18 71,-28 102,-28 61,0 91,33 91,97l0 115c0,24 3,44 7,62zm-47 -79l0 -49c-36,4 -61,7 -74,10 -14,2 -25,8 -35,15 -10,8 -15,19 -15,32 0,12 4,21 13,29 8,7 19,11 32,11 14,0 28,-4 42,-13 14,-8 27,-20 37,-35z"/>
    <path class="fil0" d="M13573 4558l-16 38c-18,-7 -33,-11 -46,-11 -12,0 -23,3 -34,10 -12,7 -22,17 -32,29 -9,13 -14,20 -14,21l0 173 -40 0 0 -267 40 0 0 54c21,-41 49,-61 83,-61 20,0 40,5 59,14z"/>
    <path class="fil0" d="M13818 4818l-40 0 0 -233 -79 0 0 -34 119 0 0 267zm-20 -368c8,0 14,2 20,8 5,5 8,12 8,19 0,8 -3,15 -8,20 -6,5 -12,8 -20,8 -7,0 -13,-3 -18,-9 -6,-5 -8,-12 -8,-19 0,-7 2,-14 8,-19 5,-6 11,-8 18,-8z"/>
    <path class="fil0" d="M14207 4818l-40 0c-3,-10 -5,-25 -5,-43 -23,34 -54,50 -93,50 -20,0 -37,-7 -52,-21 -15,-14 -23,-32 -23,-54 0,-14 3,-25 8,-35 5,-10 13,-19 23,-26 11,-7 23,-12 38,-16 15,-4 32,-7 52,-9l45 -3 0 -13c0,-46 -21,-69 -64,-69 -10,0 -23,2 -38,7 -16,4 -29,9 -40,15l-11 -29c37,-18 71,-28 102,-28 61,0 91,33 91,97l0 115c0,24 2,44 7,62zm-47 -79l0 -49c-36,4 -61,7 -74,10 -14,2 -25,8 -35,15 -10,8 -15,19 -15,32 0,12 4,21 13,29 8,7 19,11 32,11 14,0 28,-4 42,-13 14,-8 27,-20 37,-35z"/>
    <polygon class="fil0" points="14497,4818 14387,4818 14387,4491 14317,4491 14317,4456 14427,4456 14427,4784 14496,4784 14496,4818 "/>
    <path class="fil0" d="M7585 5424c-30,22 -63,33 -99,33 -47,0 -82,-16 -107,-48 -24,-32 -36,-79 -36,-141 0,-59 12,-105 35,-138 24,-33 60,-50 108,-50 18,0 35,2 52,7 17,4 31,10 42,18l-14 33c-24,-14 -51,-21 -80,-21 -33,0 -57,12 -74,37 -16,24 -24,62 -24,114 0,101 32,152 98,152 25,0 44,-6 57,-16l0 -90 -66 0 0 -36 108 0 0 146 0 0z"/>
    <path class="fil0" d="M7894 5449l-40 0c-3,-10 -5,-25 -5,-43 -22,34 -54,51 -93,51 -19,0 -37,-8 -52,-22 -15,-14 -23,-32 -23,-54 0,-14 3,-25 8,-35 5,-10 13,-19 23,-26 11,-7 23,-12 38,-16 15,-4 32,-7 52,-9l45 -3 0 -13c0,-46 -21,-69 -64,-69 -10,0 -23,2 -38,7 -16,4 -29,9 -40,15l-11 -29c37,-18 71,-28 102,-28 61,0 91,33 91,97l0 115c0,24 3,44 7,62zm-47 -79l0 -48c-36,3 -61,6 -74,9 -13,3 -25,8 -35,16 -10,7 -15,18 -15,31 0,12 4,22 13,29 8,7 19,11 32,11 14,0 28,-4 42,-13 14,-8 27,-20 37,-35z"/>
    <path class="fil0" d="M8037 5217c9,-13 21,-23 36,-30 15,-8 31,-11 48,-11 31,0 55,12 73,37 17,25 26,58 26,99 0,41 -10,75 -28,103 -19,28 -43,42 -74,42 -17,0 -32,-5 -47,-13 -14,-8 -26,-19 -34,-33l0 38 -40 0 0 -362 40 0 0 130 0 0zm0 39l0 112c7,15 18,27 30,37 13,10 27,15 40,15 22,0 39,-10 52,-30 12,-21 19,-46 19,-76 0,-31 -6,-56 -18,-75 -13,-19 -29,-29 -51,-29 -29,0 -52,16 -72,46z"/>
    <path class="fil0" d="M8452 5449l-40 0 0 -232 -79 0 0 -35 119 0 0 267zm-20 -368c8,0 14,2 20,8 5,5 8,12 8,19 0,8 -3,15 -8,20 -5,5 -12,8 -20,8 -7,0 -13,-3 -18,-8 -6,-6 -8,-12 -8,-20 0,-7 2,-13 8,-19 5,-6 11,-8 18,-8z"/>
    <path class="fil0" d="M8834 5449l-40 0 0 -171c0,-24 -4,-41 -11,-52 -8,-10 -20,-16 -36,-16 -25,0 -51,15 -79,46l0 193 -40 0 0 -267 40 0 0 39c29,-30 59,-46 91,-46 50,0 75,31 75,91l0 183z"/>
    <path class="fil0" d="M9158 5317l-184 0c0,30 9,55 27,75 17,20 39,30 64,30 24,0 50,-5 75,-13l8 32c-24,10 -52,16 -83,16 -40,0 -72,-13 -96,-39 -25,-25 -37,-60 -37,-103 0,-42 11,-76 33,-102 22,-25 50,-37 84,-37 31,0 57,11 78,35 21,23 31,54 31,93l0 13zm-44 -33c0,-20 -6,-38 -19,-52 -13,-15 -28,-22 -44,-22 -21,0 -38,7 -51,21 -14,13 -22,31 -23,53l137 0z"/>
    <path class="fil0" d="M9468 5437c-27,13 -53,19 -79,19 -48,0 -72,-25 -72,-76l0 -163 -51 0 0 -35 51 0 0 -73 39 0 0 73 91 0 0 35 -91 0 0 153c0,16 4,29 11,38 7,9 17,13 29,13 22,0 44,-5 65,-15l7 31z"/>
    <path class="fil0" d="M9789 5317l-183 0c0,30 8,55 26,75 17,20 39,30 65,30 24,0 49,-5 75,-13l7 32c-24,10 -52,16 -83,16 -40,0 -72,-13 -96,-39 -24,-25 -37,-60 -37,-103 0,-42 11,-76 33,-102 22,-25 50,-37 85,-37 31,0 56,11 77,35 21,23 31,54 31,93l0 13zm-43 -33c0,-20 -7,-38 -20,-52 -13,-15 -28,-22 -44,-22 -20,0 -38,7 -51,21 -14,13 -21,31 -23,53l138 0z"/>
    <path class="fil0" d="M10425 5182l-102 268c-15,39 -29,66 -44,82 -14,16 -31,23 -49,23 -17,0 -33,-3 -49,-9l7 -32c13,4 25,6 35,6 14,0 26,-5 35,-16 9,-11 19,-30 28,-55l-100 -267 43 0 76 213 76 -213 44 0 0 0z"/>
    <path class="fil0" d="M11084 5449l-44 0 -40 -126 -119 0 -40 126 -44 0 118 -362 51 0 118 362zm-96 -163l-47 -150 -48 150 95 0z"/>
    <path class="fil0" d="M11359 5449l-40 0 0 -171c0,-24 -3,-41 -11,-52 -8,-10 -20,-16 -36,-16 -24,0 -51,15 -79,46l0 193 -40 0 0 -267 40 0 0 39c29,-30 59,-46 91,-46 50,0 75,31 75,91l0 183z"/>
    <path class="fil0" d="M11682 5449l-40 0c-3,-10 -5,-25 -5,-43 -23,34 -54,51 -93,51 -20,0 -37,-8 -52,-22 -16,-14 -23,-32 -23,-54 0,-14 2,-25 8,-35 5,-10 13,-19 23,-26 11,-7 23,-12 38,-16 14,-4 32,-7 52,-9l45 -3 0 -13c0,-46 -21,-69 -64,-69 -10,0 -23,2 -39,7 -15,4 -28,9 -40,15l-10 -29c36,-18 70,-28 102,-28 61,0 91,33 91,97l0 115c0,24 2,44 7,62zm-47 -79l0 -48c-36,3 -61,6 -74,9 -14,3 -25,8 -35,16 -10,7 -15,18 -15,31 0,12 4,22 13,29 8,7 19,11 32,11 14,0 28,-4 42,-13 14,-8 26,-20 37,-35zm15 -297l-81 77 -28 0 50 -77 59 0z"/>
    <polygon class="fil0" points="11971,5449 11862,5449 11862,5122 11792,5122 11792,5087 11902,5087 11902,5415 11971,5415 11971,5449 "/>
    <path class="fil0" d="M12240 5449l-40 0 0 -232 -79 0 0 -35 119 0 0 267zm-20 -368c8,0 14,2 19,8 6,5 8,12 8,19 0,8 -2,15 -8,20 -5,5 -11,8 -19,8 -7,0 -13,-3 -19,-8 -5,-6 -8,-12 -8,-20 0,-7 3,-13 8,-19 6,-6 12,-8 19,-8z"/>
    <path class="fil0" d="M12594 5220c-22,-7 -43,-11 -63,-11 -22,0 -39,4 -52,11 -13,7 -19,17 -19,29 0,8 3,15 9,20 5,6 17,11 35,16l38 12c18,4 32,10 43,17 11,7 20,16 25,25 6,10 8,22 8,35 0,25 -10,46 -32,60 -21,15 -48,23 -81,23 -33,0 -60,-5 -82,-15l8 -35c22,11 46,16 72,16 22,0 40,-4 54,-13 14,-8 21,-19 21,-33 0,-9 -3,-17 -10,-24 -7,-8 -23,-15 -49,-23 -21,-6 -36,-11 -46,-14 -9,-4 -19,-8 -27,-14 -8,-6 -15,-14 -19,-22 -4,-9 -7,-19 -7,-29 0,-23 10,-42 31,-55 20,-14 47,-20 80,-20 22,0 46,3 72,11l-9 33z"/>
    <path class="fil0" d="M12871 5449l-40 0 0 -232 -79 0 0 -35 119 0 0 267zm-20 -368c8,0 14,2 20,8 5,5 7,12 7,19 0,8 -2,15 -7,20 -5,5 -12,8 -20,8 -7,0 -13,-3 -18,-8 -6,-6 -8,-12 -8,-20 0,-7 2,-13 8,-19 5,-6 11,-8 18,-8z"/>
    <path class="fil0" d="M13225 5220c-22,-7 -43,-11 -63,-11 -22,0 -39,4 -52,11 -12,7 -19,17 -19,29 0,8 3,15 9,20 6,6 18,11 35,16l38 12c18,4 32,10 43,17 11,7 20,16 25,25 6,10 9,22 9,35 0,25 -11,46 -33,60 -21,15 -48,23 -81,23 -33,0 -60,-5 -81,-15l7 -35c23,11 47,16 72,16 23,0 41,-4 55,-13 14,-8 21,-19 21,-33 0,-9 -4,-17 -11,-24 -7,-8 -23,-15 -49,-23 -20,-6 -36,-11 -45,-14 -10,-4 -19,-8 -28,-14 -8,-6 -14,-14 -19,-22 -4,-9 -6,-19 -6,-29 0,-23 10,-42 30,-55 20,-14 47,-20 80,-20 22,0 46,3 72,11l-9 33z"/>
   </g>
   <path class="fil1" d="M6537 1834l0 0 0 0c-115,-200 -275,-375 -450,-476l-2089 -1206c-169,-98 -395,-152 -636,-152 -241,0 -467,54 -637,152l-2088 1206c-351,202 -637,697 -637,1102l0 2412c0,405 286,900 637,1102l2088 1206c156,90 359,142 578,150l0 1c1,0 2,0 3,-1 2,0 5,0 8,1 0,0 1,0 1,0l1 0c15,0 30,1 46,1 240,0 467,-54 636,-152l2089 -1206c351,-202 636,-697 636,-1102l0 -2412c0,-202 -71,-426 -186,-626zm-2917 4317c-116,31 -233,56 -350,76 -727,-153 -1396,-512 -1937,-1047 -58,-58 -115,-119 -170,-180 -300,-842 -295,-1742 -24,-2556 512,-608 1196,-1045 1979,-1255 44,-11 88,-22 131,-32 792,132 1522,503 2103,1079 77,76 150,154 219,235 265,836 234,1721 -53,2518 -502,559 -1155,963 -1898,1162zm1862 -1067c-166,425 -405,822 -713,1170 -216,38 -437,57 -661,58 -7,1 -14,1 -21,1 -242,0 -481,-23 -715,-65 86,-18 172,-38 258,-60 719,-193 1354,-575 1852,-1104zm-5231 411c-78,-575 -30,-1147 141,-1689 168,442 417,853 738,1214 73,204 164,405 273,600 117,208 250,402 397,582 -399,-85 -787,-233 -1151,-443 -138,-80 -272,-169 -398,-264zm159 -1748c84,-252 194,-498 331,-734 99,-173 211,-336 333,-489 -236,769 -239,1607 22,2399 -298,-352 -529,-750 -686,-1176zm1027 1855c-93,-165 -172,-334 -238,-506 35,37 71,75 107,111 523,517 1164,871 1862,1037 -438,64 -879,53 -1308,-30 -158,-189 -300,-393 -423,-612zm-263 -3257c153,-422 379,-819 671,-1170 239,-46 484,-70 733,-72 193,-1 384,12 572,39 -14,3 -28,7 -42,10 -759,204 -1425,618 -1934,1193zm2174 -1210c491,-101 989,-106 1473,-19 162,191 307,399 432,622 117,208 212,422 287,640 -52,-58 -105,-114 -161,-169 -564,-559 -1268,-928 -2031,-1074zm2286 1411c285,349 506,740 654,1159 -78,213 -175,421 -291,622 -121,209 -259,404 -412,584 252,-752 279,-1578 49,-2365zm-29 -94c-79,-250 -185,-495 -318,-733 -119,-211 -255,-409 -407,-592 420,82 828,234 1209,454 138,80 271,169 398,264 84,616 22,1228 -178,1803 -161,-434 -397,-838 -704,-1196zm-1626 -2267l2088 1206c147,85 282,222 388,383 -111,-81 -227,-157 -347,-226 -399,-230 -827,-387 -1267,-468 -379,-445 -851,-798 -1395,-1039 202,11 389,61 533,144zm-599 -132c546,234 1021,579 1403,1017 -504,-84 -1024,-70 -1535,48 -219,-36 -443,-54 -670,-53 -236,1 -468,23 -694,64 290,-339 644,-633 1055,-864 143,-80 291,-151 441,-212zm-2724 1338l2088 -1206c153,-88 353,-139 569,-145 -133,56 -265,120 -393,192 -429,241 -797,551 -1096,908 -583,115 -1131,361 -1613,727 112,-200 270,-375 445,-476zm-455 531c473,-366 1010,-615 1584,-735 -301,371 -530,792 -679,1238 -148,176 -281,366 -399,569 -129,224 -235,456 -317,695 -141,-404 -215,-832 -218,-1272 0,-165 9,-332 29,-495zm-163 538c0,-157 45,-328 119,-489 -15,148 -24,297 -23,446 2,461 83,910 236,1331 -180,548 -235,1127 -162,1711 -105,-188 -170,-398 -170,-587l0 -2412zm2706 4687l-2088 -1206c-149,-86 -285,-225 -391,-388 116,86 239,166 365,239 381,220 789,373 1209,457 374,442 840,794 1376,1037 -178,-17 -342,-65 -471,-139zm566 140c-550,-235 -1028,-585 -1412,-1027 232,42 467,64 703,64 222,0 446,-19 668,-58 266,56 540,85 818,85 7,0 14,0 21,0 210,-1 417,-19 620,-51 -275,301 -602,565 -977,775 -142,80 -291,151 -441,212zm2757 -1346l-2088 1206c-156,90 -363,141 -584,146 127,-55 253,-117 374,-185 394,-220 735,-499 1020,-819 600,-106 1163,-350 1659,-720 -105,156 -237,289 -381,372zm418 -448c-492,382 -1055,636 -1656,750 317,-367 560,-787 722,-1235 180,-201 341,-422 479,-662 110,-189 202,-384 278,-584 133,393 203,809 205,1237 1,165 -8,331 -28,494zm200 -621c0,180 -59,380 -155,561 15,-144 22,-289 22,-434 -2,-448 -79,-884 -223,-1294 207,-573 278,-1184 204,-1799 95,180 152,376 152,554l0 2412z"/>
   <path class="fil2" d="M656 1391l2088 -1206c153,-88 353,-139 569,-145 -133,56 -265,120 -393,192 -429,241 -797,551 -1096,908 -583,115 -1131,361 -1613,727 112,-200 270,-375 445,-476z"/>
   <path class="fil3" d="M3380 53c546,234 1021,579 1403,1017 -504,-84 -1024,-70 -1535,48 -219,-36 -443,-54 -670,-53 -236,1 -468,23 -694,64 290,-339 644,-633 1055,-864 143,-80 291,-151 441,-212z"/>
   <path class="fil4" d="M3979 185l2088 1206c147,85 282,222 388,383 -111,-81 -227,-157 -347,-226 -399,-230 -827,-387 -1267,-468 -379,-445 -851,-798 -1395,-1039 202,11 389,61 533,144z"/>
   <path class="fil5" d="M201 1922c473,-366 1010,-615 1584,-735 -301,371 -530,792 -679,1238 -148,176 -281,366 -399,569 -129,224 -235,456 -317,695 -141,-404 -215,-832 -218,-1272 0,-165 9,-332 29,-495z"/>
   <path class="fil6" d="M1174 2345c153,-422 379,-819 671,-1170 239,-46 484,-70 733,-72 193,-1 384,12 572,39 -14,3 -28,7 -42,10 -759,204 -1425,618 -1934,1193z"/>
   <path class="fil7" d="M5379 2209c-564,-559 -1268,-928 -2031,-1074 491,-101 989,-106 1473,-19 162,191 307,399 432,622 117,208 212,422 287,640 -52,-58 -105,-114 -161,-169z"/>
   <path class="fil8" d="M5605 2452c-79,-250 -185,-495 -318,-733 -119,-211 -255,-409 -407,-592 420,82 828,234 1209,454 138,80 271,169 398,264 84,616 22,1228 -178,1803 -161,-434 -397,-838 -704,-1196z"/>
   <path class="fil9" d="M410 3747c84,-252 194,-498 331,-734 99,-173 211,-336 333,-489 -236,769 -239,1607 22,2399 -298,-352 -529,-750 -686,-1176z"/>
   <path class="fil10" d="M5634 2546c285,349 506,740 654,1159 -78,213 -175,421 -291,622 -121,209 -259,404 -412,584 252,-752 279,-1578 49,-2365z"/>
   <path class="fil11" d="M6685 4872c0,180 -59,380 -155,561 15,-144 22,-289 22,-434 -2,-448 -79,-884 -223,-1294 207,-573 278,-1184 204,-1799 95,180 152,376 152,554l0 2412z"/>
   <path class="fil11" d="M38 2460c0,-157 45,-328 119,-489 -15,148 -24,297 -23,446 2,461 83,910 236,1331 -180,548 -235,1127 -162,1711 -105,-188 -170,-398 -170,-587l0 -2412z"/>
   <path class="fil5" d="M6485 5493c-492,382 -1055,636 -1656,750 317,-367 560,-787 722,-1235 180,-201 341,-422 479,-662 110,-189 202,-384 278,-584 133,393 203,809 205,1237 1,165 -8,331 -28,494z"/>
   <path class="fil8" d="M251 5495c-78,-575 -30,-1147 141,-1689 168,442 417,853 738,1214 73,204 164,405 273,600 117,208 250,402 397,582 -399,-85 -787,-233 -1151,-443 -138,-80 -272,-169 -398,-264z"/>
   <path class="fil3" d="M3310 7287c-550,-235 -1028,-585 -1412,-1027 232,42 467,64 703,64 222,0 446,-19 668,-58 266,56 540,85 818,85 7,0 14,0 21,0 210,-1 417,-19 620,-51 -275,301 -602,565 -977,775 -142,80 -291,151 -441,212z"/>
   <path class="fil7" d="M1437 5602c-93,-165 -172,-334 -238,-506 35,37 71,75 107,111 523,517 1164,871 1862,1037 -438,64 -879,53 -1308,-30 -158,-189 -300,-393 -423,-612z"/>
   <path class="fil6" d="M5482 5084c-166,425 -405,822 -713,1170 -216,38 -437,57 -661,58 -7,1 -14,1 -21,1 -242,0 -481,-23 -715,-65 86,-18 172,-38 258,-60 719,-193 1354,-575 1852,-1104z"/>
   <path class="fil4" d="M2744 7147l-2088 -1206c-149,-86 -285,-225 -391,-388 116,86 239,166 365,239 381,220 789,373 1209,457 374,442 840,794 1376,1037 -178,-17 -342,-65 -471,-139z"/>
   <path class="fil2" d="M6067 5941l-2088 1206c-156,90 -363,141 -584,146 127,-55 253,-117 374,-185 394,-220 735,-499 1020,-819 600,-106 1163,-350 1659,-720 -105,156 -237,289 -381,372z"/>
   <path class="fil1" d="M3368 1639c-111,1088 -1214,2135 -1214,2805 0,670 544,1214 1214,1214 671,0 1214,-544 1214,-1214 0,-670 -1103,-1717 -1214,-2805z"/>
   <g>
    <path class="fil5" d="M5047 2975l-66 0c-575,-18 -533,-109 -853,-180 -332,-73 -249,118 -326,310 -62,157 -263,215 -333,231l3 -139c58,-40 96,-106 96,-182 0,-121 -99,-220 -220,-220 -122,0 -221,99 -221,220 0,76 38,142 96,182l2 136c-79,-19 -262,-79 -322,-228 -76,-192 7,-383 -325,-310 -320,71 -278,162 -853,180l-66 0c-28,0 -51,23 -51,51 0,27 23,50 51,50l155 0c-34,16 -58,51 -58,91 0,55 45,100 101,100l189 0c-3,7 -5,15 -5,23 0,28 22,50 50,50l74 0c-2,0 39,4 117,-16 23,-5 52,-16 87,-24 84,-19 201,-31 317,2 224,64 390,192 505,186 13,-1 25,-3 36,-6l10 648c-4,0 -8,0 -11,0 -213,-2 -610,-6 -693,-149 -19,-32 -15,-51 -9,-65 28,-65 162,-119 240,-138 3,0 6,-2 9,-3 36,20 87,32 143,32 109,0 198,-45 198,-101 0,-55 -89,-100 -198,-100 -79,0 -148,24 -179,58 0,0 0,0 0,0 -27,7 -261,66 -321,206 -16,38 -26,98 15,170 72,124 255,173 447,193 -47,30 -85,69 -106,120 -25,63 -20,127 14,185 68,116 245,191 418,229 -84,16 -184,55 -216,148 -15,46 -13,92 8,134 42,84 151,138 257,165l3 211c0,48 37,86 83,86 46,0 83,-38 83,-86l5 -216c100,-29 197,-81 237,-160 21,-42 23,-88 8,-134 -32,-92 -131,-132 -216,-148 174,-38 351,-112 419,-229 34,-58 39,-122 14,-185 -20,-51 -58,-90 -105,-120 194,-19 378,-68 451,-193 42,-72 31,-132 15,-170 -60,-140 -294,-199 -320,-206 0,0 0,0 -1,0 -31,-34 -99,-58 -179,-58 -109,0 -198,45 -198,101 0,55 89,100 198,100 57,0 108,-12 144,-32 2,2 5,3 8,3 78,19 212,73 240,138 6,14 10,33 -9,66 -81,140 -466,146 -682,147l15 -650c13,4 29,8 49,9 115,6 281,-122 504,-186 117,-33 233,-21 318,-2 35,8 64,19 86,24 79,20 120,16 117,16l75 0c28,0 50,-22 50,-50 0,-8 -2,-16 -6,-23l190 0c56,0 101,-45 101,-100 0,-40 -24,-75 -59,-91l156 0c28,0 50,-23 50,-50 0,-28 -22,-51 -50,-51zm-2160 1503c-15,-26 -17,-52 -6,-81 39,-98 228,-134 358,-145l6 403c-174,-36 -315,-104 -358,-177zm171 528c-9,-19 -10,-38 -3,-59 21,-63 116,-91 193,-102l4 282c-95,-27 -170,-73 -194,-121zm547 -59c8,21 6,40 -3,59 -22,45 -88,87 -173,114l6 -271c72,13 151,41 170,98zm175 -550c12,29 10,55 -6,81 -41,70 -171,135 -334,172l9 -396c127,14 295,52 331,143z"/>
   </g>
  </g>
 </g>
</svg>
