<?xml version="1.0" encoding="utf-8"?>
<!-- Generator: Adobe Illustrator 16.0.0, SVG Export Plug-In . SVG Version: 6.00 Build 0)  -->
<!DOCTYPE svg PUBLIC "-//W3C//DTD SVG 1.1//EN" "http://www.w3.org/Graphics/SVG/1.1/DTD/svg11.dtd">
<svg version="1.1" id="Capa_1" xmlns="http://www.w3.org/2000/svg" xmlns:xlink="http://www.w3.org/1999/xlink" x="0px" y="0px"
	 width="207.477px" height="108.057px" viewBox="0 0 207.477 108.057" enable-background="new 0 0 207.477 108.057"
	 xml:space="preserve">
<g id="Capa_x0020_1">
	<g id="_264118464">
		<g>
			<g>
				<path fill="#FFFFFF" d="M0.001,0h15.617c17.259,0,31.236,13.978,31.236,31.236c0,17.253-13.983,31.23-31.236,31.23H0.001V0z
					 M15.618,3.904H3.905v54.657h11.713c14.989-0.08,27.17-12.262,27.17-27.326C42.788,16.242,30.607,3.985,15.618,3.904z"/>
			</g>
		</g>
		<g>
			<g>
				<polygon fill="#FFFFFF" points="54.69,0 93.735,0 93.735,3.904 58.594,3.904 58.594,23.427 85.926,23.427 85.926,27.326 
					58.594,27.326 58.594,58.562 93.735,58.562 93.735,62.466 54.69,62.466 				"/>
			</g>
		</g>
		<g>
			<g>
				<path fill="#FFFFFF" d="M126.789,58.562c7.647,0,14.671-3.199,19.667-8.433V31.236h3.905v19.985
					c-6.325,7.497-14.446,11.24-23.417,11.24c-17.264,0-31.241-13.972-31.241-31.225C95.703,13.978,109.68,0,126.944,0
					c8.971,0,17.092,3.829,22.793,9.912l-3.2,2.501c-5.002-5.228-12.025-8.508-19.748-8.508c-15.075,0-27.332,12.257-27.332,27.326
					S111.714,58.562,126.789,58.562z"/>
			</g>
		</g>
		<g>
			<g>
				<path fill="#FFFFFF" d="M183.038,0.081l24.438,62.38h-4.298l-7.572-19.517h-29.439l-7.491,19.517h-4.378l24.519-62.38H183.038z
					 M167.732,39.04h26.385L180.929,5.001L167.732,39.04z"/>
			</g>
		</g>
	</g>
	<g id="_264126912">
		<path fill="#FFFFFF" d="M1.291,76.567H3.34c1.355,0,2.442,0.463,3.26,1.383c0.822,0.925,1.226,2.199,1.226,3.808
			c0,1.646-0.408,2.925-1.242,3.829c-0.828,0.903-1.893,1.36-3.194,1.36H1.291V76.567z M2.496,85.894h0.855
			c0.983,0,1.764-0.365,2.339-1.098c0.57-0.726,0.855-1.742,0.855-3.038c0-1.286-0.285-2.297-0.86-3.033
			c-0.576-0.737-1.355-1.108-2.334-1.108H2.496V85.894z"/>
		<path fill="#FFFFFF" d="M14.371,86.947h-1.151v-6.674h-2.253v-0.989h3.404V86.947z M13.811,76.385
			c0.215,0,0.397,0.075,0.554,0.231c0.146,0.15,0.226,0.339,0.226,0.554c0,0.226-0.075,0.414-0.226,0.565
			c-0.15,0.15-0.333,0.226-0.554,0.226c-0.204,0-0.377-0.075-0.532-0.237c-0.156-0.156-0.231-0.344-0.231-0.554
			s0.075-0.393,0.231-0.554C13.434,76.46,13.607,76.385,13.811,76.385z"/>
		<path fill="#FFFFFF" d="M25.513,86.947h-1.14c-0.092-0.312-0.14-0.726-0.14-1.237c-0.656,0.958-1.538,1.432-2.662,1.432
			c-0.57,0-1.076-0.199-1.506-0.604c-0.436-0.408-0.651-0.93-0.651-1.564c0-0.377,0.075-0.71,0.231-1
			c0.15-0.291,0.377-0.533,0.667-0.731c0.296-0.199,0.65-0.36,1.07-0.474c0.425-0.113,0.925-0.193,1.506-0.236l1.285-0.103v-0.366
			c0-1.316-0.613-1.979-1.834-1.979c-0.296,0-0.661,0.064-1.103,0.193c-0.446,0.124-0.828,0.274-1.146,0.441l-0.301-0.822
			c1.043-0.533,2.017-0.802,2.915-0.802c1.742,0,2.619,0.925,2.619,2.774v3.292C25.326,85.834,25.39,86.426,25.513,86.947z
			 M24.175,84.673V83.28c-1.032,0.091-1.742,0.182-2.13,0.263c-0.387,0.081-0.715,0.231-1,0.452c-0.279,0.221-0.42,0.521-0.42,0.898
			c0,0.344,0.119,0.618,0.355,0.828c0.242,0.209,0.549,0.316,0.92,0.316c0.408,0,0.812-0.117,1.215-0.365
			C23.513,85.431,23.874,85.098,24.175,84.673z"/>
		<path fill="#FFFFFF" d="M30.58,84.054c-0.71,0.35-1.07,0.65-1.07,0.92c0,0.14,0.081,0.264,0.248,0.36
			c0.161,0.097,0.387,0.146,0.672,0.146l2.581-0.07c0.613,0,1.087,0.15,1.431,0.446c0.345,0.302,0.512,0.726,0.512,1.274
			c0,0.866-0.388,1.561-1.162,2.07c-0.774,0.522-1.678,0.775-2.716,0.775c-0.85,0-1.538-0.178-2.081-0.533
			c-0.538-0.359-0.807-0.816-0.807-1.377c0-0.617,0.419-1.135,1.247-1.554c-0.688-0.328-1.032-0.721-1.032-1.188
			c0-0.543,0.44-1.049,1.339-1.512c-0.414-0.252-0.731-0.575-0.957-0.968c-0.215-0.403-0.328-0.817-0.328-1.264
			c0-0.716,0.247-1.312,0.736-1.774c0.49-0.463,1.103-0.694,1.84-0.694c0.527,0,1.006,0.108,1.436,0.328l2.275-0.344v1.118h-1.469
			c0.221,0.388,0.334,0.845,0.334,1.366c0,0.699-0.242,1.285-0.731,1.77c-0.484,0.479-1.098,0.721-1.845,0.721
			C30.871,84.07,30.725,84.065,30.58,84.054z M31.075,89.083c0.753,0,1.398-0.167,1.931-0.5c0.538-0.34,0.802-0.754,0.802-1.248
			c0-0.512-0.382-0.77-1.135-0.77c-0.253,0-0.684,0.016-1.297,0.049c-0.387,0.021-0.688,0.032-0.914,0.032
			c-0.107,0-0.274,0.086-0.5,0.263c-0.226,0.178-0.403,0.355-0.521,0.533c-0.124,0.178-0.184,0.36-0.184,0.554
			c0,0.302,0.167,0.56,0.501,0.769C30.091,88.98,30.532,89.083,31.075,89.083z M31.032,83.177c0.419,0,0.764-0.145,1.032-0.436
			c0.27-0.295,0.403-0.678,0.403-1.145c0-0.495-0.129-0.883-0.393-1.162c-0.258-0.279-0.607-0.42-1.043-0.42
			c-0.409,0-0.748,0.146-1.027,0.436c-0.274,0.297-0.414,0.678-0.414,1.146c0,0.457,0.14,0.844,0.414,1.135
			C30.284,83.032,30.623,83.177,31.032,83.177z"/>
		<path fill="#FFFFFF" d="M43.401,86.947h-1.14v-4.915c0-0.684-0.113-1.178-0.328-1.484c-0.221-0.307-0.564-0.463-1.027-0.463
			c-0.704,0-1.457,0.441-2.265,1.313v5.545h-1.146v-7.664h1.146v1.124c0.823-0.871,1.694-1.307,2.604-1.307
			c1.441,0,2.156,0.866,2.156,2.603V86.947z"/>
		<path fill="#FFFFFF" d="M49.473,79.096c1.054,0,1.893,0.365,2.517,1.103c0.619,0.736,0.936,1.705,0.936,2.909
			c0,1.21-0.316,2.184-0.936,2.926c-0.624,0.742-1.457,1.108-2.517,1.108s-1.898-0.366-2.522-1.104
			c-0.618-0.742-0.925-1.715-0.925-2.931c0-1.21,0.307-2.179,0.936-2.909C47.58,79.461,48.419,79.096,49.473,79.096z M49.473,86.146
			c0.693,0,1.248-0.295,1.651-0.887c0.397-0.586,0.602-1.302,0.602-2.135c0-0.888-0.198-1.608-0.597-2.184
			c-0.397-0.564-0.952-0.855-1.656-0.855c-0.71,0-1.264,0.285-1.651,0.85c-0.397,0.56-0.592,1.285-0.592,2.189
			c0,0.85,0.199,1.564,0.592,2.15C48.225,85.851,48.774,86.146,49.473,86.146z M51.528,76.159l-2.302,2.216h-0.818l1.458-2.216
			H51.528z"/>
		<path fill="#FFFFFF" d="M60.686,80.376c-0.646-0.211-1.253-0.318-1.817-0.318c-0.624,0-1.124,0.107-1.479,0.313
			c-0.36,0.209-0.543,0.489-0.543,0.834c0,0.221,0.081,0.414,0.248,0.58c0.166,0.167,0.5,0.317,1,0.463l1.097,0.313
			c0.506,0.145,0.915,0.312,1.237,0.51c0.317,0.199,0.554,0.441,0.715,0.721c0.162,0.285,0.237,0.613,0.237,0.984
			c0,0.731-0.307,1.307-0.914,1.732c-0.619,0.424-1.398,0.635-2.346,0.635c-0.94,0-1.715-0.141-2.328-0.426l0.221-0.989
			c0.64,0.302,1.328,0.452,2.064,0.452c0.635,0,1.156-0.113,1.555-0.355c0.403-0.236,0.603-0.554,0.603-0.946
			c0-0.264-0.097-0.5-0.296-0.71s-0.667-0.425-1.409-0.65c-0.586-0.178-1.027-0.313-1.307-0.409
			c-0.274-0.086-0.538-0.221-0.774-0.397c-0.242-0.178-0.425-0.388-0.555-0.635c-0.123-0.242-0.183-0.517-0.183-0.823
			c0-0.661,0.291-1.188,0.866-1.575c0.581-0.383,1.35-0.581,2.302-0.581c0.618,0,1.307,0.107,2.06,0.317L60.686,80.376z"/>
		<path fill="#FFFFFF" d="M70.598,86.598c-0.77,0.354-1.527,0.532-2.27,0.532c-1.366,0-2.055-0.726-2.055-2.172v-4.685h-1.468
			v-0.995h1.468v-2.098h1.119v2.098h2.608v0.995h-2.608v4.383c0,0.468,0.107,0.828,0.307,1.087c0.209,0.258,0.489,0.387,0.839,0.387
			c0.629,0,1.247-0.14,1.866-0.425L70.598,86.598z"/>
		<path fill="#FFFFFF" d="M77.654,86.947h-1.146v-6.674h-2.264v-0.989h3.409V86.947z M77.095,76.385
			c0.215,0,0.397,0.075,0.554,0.231c0.15,0.15,0.226,0.339,0.226,0.554c0,0.226-0.075,0.414-0.226,0.565
			c-0.15,0.15-0.328,0.226-0.554,0.226c-0.205,0-0.377-0.075-0.533-0.237c-0.155-0.156-0.23-0.344-0.23-0.554
			s0.075-0.393,0.23-0.554C76.719,76.46,76.89,76.385,77.095,76.385z"/>
		<path fill="#FFFFFF" d="M88.577,86.689c-0.666,0.307-1.397,0.452-2.199,0.452c-1.205,0-2.167-0.366-2.888-1.098
			c-0.716-0.731-1.07-1.705-1.07-2.92c0-1.221,0.354-2.195,1.075-2.926c0.727-0.737,1.678-1.103,2.855-1.103
			c0.764,0,1.506,0.134,2.2,0.403l-0.307,0.951c-0.693-0.242-1.323-0.365-1.877-0.365c-0.845,0-1.517,0.274-2.006,0.822
			c-0.489,0.544-0.737,1.281-0.737,2.217c0,0.85,0.253,1.564,0.764,2.15c0.512,0.576,1.173,0.871,1.99,0.871
			c0.646,0,1.313-0.129,2.001-0.376L88.577,86.689z"/>
		<path fill="#FFFFFF" d="M94.681,79.096c1.049,0,1.894,0.365,2.512,1.103c0.618,0.736,0.936,1.705,0.936,2.909
			c0,1.21-0.317,2.184-0.936,2.926s-1.463,1.108-2.512,1.108c-1.06,0-1.904-0.366-2.522-1.104c-0.618-0.742-0.931-1.715-0.931-2.931
			c0-1.21,0.313-2.179,0.937-2.909C92.783,79.461,93.628,79.096,94.681,79.096z M94.681,86.146c0.693,0,1.237-0.295,1.646-0.887
			c0.398-0.586,0.603-1.302,0.603-2.135c0-0.888-0.199-1.608-0.597-2.184c-0.398-0.564-0.947-0.855-1.651-0.855
			c-0.715,0-1.27,0.285-1.662,0.85c-0.387,0.56-0.586,1.285-0.586,2.189c0,0.85,0.204,1.564,0.597,2.15
			C93.428,85.851,93.977,86.146,94.681,86.146z"/>
		<polygon fill="#FFFFFF" points="115.549,86.947 110.128,86.947 110.128,76.567 115.5,76.567 115.5,77.616 111.327,77.616 
			111.327,80.833 115.344,80.833 115.344,81.887 111.327,81.887 111.327,85.894 115.549,85.894 		"/>
		<path fill="#FFFFFF" d="M125.374,86.947h-1.15v-5.034c0-1.215-0.221-1.828-0.673-1.828c-0.23,0-0.483,0.215-0.764,0.635
			c-0.279,0.42-0.414,0.65-0.414,0.693v5.534h-1.14v-5.034c0-1.215-0.226-1.828-0.684-1.828c-0.23,0-0.479,0.215-0.758,0.635
			c-0.274,0.42-0.414,0.65-0.414,0.693v5.534h-1.146v-7.669h1.103v1.156c0.215-0.408,0.468-0.731,0.769-0.974
			c0.296-0.241,0.592-0.365,0.883-0.365c0.312,0,0.586,0.124,0.833,0.365c0.247,0.242,0.414,0.565,0.511,0.974
			c0.216-0.408,0.474-0.731,0.77-0.974c0.301-0.241,0.592-0.365,0.882-0.365c0.931,0,1.393,0.828,1.393,2.489V86.947L125.374,86.947
			z"/>
		<path fill="#FFFFFF" d="M129.052,80.273c0.253-0.354,0.603-0.64,1.033-0.855c0.436-0.215,0.893-0.322,1.371-0.322
			c0.888,0,1.576,0.36,2.076,1.091c0.505,0.727,0.758,1.679,0.758,2.846c0,1.172-0.264,2.156-0.79,2.937
			c-0.527,0.78-1.242,1.173-2.13,1.173c-0.474,0-0.925-0.119-1.339-0.355c-0.409-0.236-0.737-0.549-0.979-0.947v4.137h-1.146V79.278
			h1.141v0.995H129.052z M129.052,81.413v3.189c0.21,0.425,0.511,0.791,0.877,1.076c0.365,0.29,0.742,0.436,1.14,0.436
			c0.619,0,1.108-0.291,1.474-0.866c0.36-0.587,0.549-1.302,0.549-2.157c0-0.881-0.172-1.607-0.521-2.162
			c-0.35-0.559-0.839-0.844-1.458-0.844C130.305,80.085,129.617,80.531,129.052,81.413z"/>
		<path fill="#FFFFFF" d="M142.971,79.488l-0.463,1.103c-0.506-0.221-0.941-0.334-1.313-0.334c-0.339,0-0.672,0.103-0.989,0.296
			c-0.328,0.188-0.624,0.468-0.893,0.828c-0.274,0.36-0.414,0.56-0.414,0.608v4.958h-1.141v-7.663h1.141v1.549
			c0.613-1.162,1.409-1.737,2.388-1.737C141.863,79.096,142.423,79.225,142.971,79.488z"/>
		<path fill="#FFFFFF" d="M152.119,83.15h-5.26c0,0.866,0.253,1.587,0.759,2.146c0.5,0.565,1.113,0.845,1.85,0.845
			c0.688,0,1.409-0.124,2.151-0.376l0.199,0.925c-0.672,0.307-1.468,0.452-2.366,0.452c-1.141,0-2.06-0.366-2.748-1.098
			c-0.705-0.731-1.049-1.716-1.049-2.953c0-1.215,0.317-2.188,0.941-2.909c0.623-0.721,1.43-1.086,2.42-1.086
			c0.882,0,1.618,0.333,2.216,1.011c0.592,0.667,0.887,1.564,0.887,2.684l0.006,0.36H152.119z M150.872,82.215
			c0-0.597-0.193-1.103-0.564-1.511c-0.371-0.409-0.786-0.619-1.248-0.619c-0.592,0-1.081,0.199-1.474,0.592
			c-0.388,0.398-0.607,0.908-0.65,1.538H150.872z"/>
		<path fill="#FFFFFF" d="M160.133,80.376c-0.64-0.211-1.253-0.318-1.817-0.318c-0.624,0-1.119,0.107-1.479,0.313
			c-0.365,0.209-0.543,0.489-0.543,0.834c0,0.221,0.081,0.414,0.247,0.58c0.167,0.167,0.5,0.317,1.006,0.463l1.098,0.313
			c0.5,0.145,0.908,0.312,1.231,0.51c0.317,0.199,0.554,0.441,0.721,0.721c0.155,0.285,0.236,0.613,0.236,0.984
			c0,0.731-0.312,1.307-0.925,1.732c-0.608,0.424-1.394,0.635-2.34,0.635c-0.936,0-1.716-0.141-2.328-0.426l0.226-0.989
			c0.64,0.302,1.328,0.452,2.06,0.452c0.64,0,1.162-0.113,1.56-0.355c0.403-0.236,0.603-0.554,0.603-0.946
			c0-0.264-0.103-0.5-0.301-0.71c-0.199-0.21-0.667-0.425-1.398-0.65c-0.592-0.178-1.033-0.313-1.313-0.409
			c-0.279-0.086-0.538-0.221-0.78-0.397c-0.241-0.178-0.425-0.388-0.548-0.635c-0.124-0.242-0.188-0.517-0.188-0.823
			c0-0.661,0.29-1.188,0.866-1.575c0.58-0.383,1.35-0.581,2.302-0.581c0.624,0,1.307,0.107,2.064,0.317L160.133,80.376z"/>
		<path fill="#FFFFFF" d="M170.163,86.947h-1.141c-0.091-0.312-0.14-0.726-0.14-1.237c-0.65,0.958-1.538,1.432-2.662,1.432
			c-0.57,0-1.07-0.199-1.506-0.604c-0.43-0.408-0.646-0.93-0.646-1.564c0-0.377,0.07-0.71,0.227-1
			c0.15-0.291,0.376-0.533,0.667-0.731c0.295-0.199,0.655-0.36,1.08-0.474c0.42-0.113,0.92-0.193,1.495-0.236l1.291-0.103v-0.366
			c0-1.316-0.618-1.979-1.839-1.979c-0.291,0-0.656,0.064-1.098,0.193c-0.451,0.124-0.828,0.274-1.15,0.441l-0.302-0.822
			c1.049-0.533,2.022-0.802,2.915-0.802c1.748,0,2.619,0.925,2.619,2.774v3.292C169.974,85.834,170.039,86.426,170.163,86.947z
			 M168.829,84.673V83.28c-1.038,0.091-1.748,0.182-2.13,0.263c-0.387,0.081-0.721,0.231-1.006,0.452
			c-0.279,0.221-0.419,0.521-0.419,0.898c0,0.344,0.118,0.618,0.36,0.828c0.236,0.209,0.543,0.316,0.92,0.316
			c0.408,0,0.807-0.117,1.215-0.365C168.168,85.431,168.517,85.098,168.829,84.673z"/>
		<path fill="#FFFFFF" d="M179.134,79.488l-0.468,1.103c-0.506-0.221-0.936-0.334-1.307-0.334c-0.334,0-0.667,0.103-0.99,0.296
			c-0.322,0.188-0.624,0.468-0.897,0.828c-0.27,0.36-0.409,0.56-0.409,0.608v4.958h-1.141v-7.663h1.141v1.549
			c0.613-1.162,1.409-1.737,2.388-1.737C178.025,79.096,178.585,79.225,179.134,79.488z"/>
		<path fill="#FFFFFF" d="M186.141,86.947h-1.146v-6.674h-2.254v-0.989h3.399V86.947z M185.582,76.385
			c0.215,0,0.397,0.075,0.554,0.231c0.15,0.15,0.226,0.339,0.226,0.554c0,0.226-0.069,0.414-0.22,0.565
			c-0.156,0.15-0.334,0.226-0.56,0.226c-0.199,0-0.371-0.075-0.532-0.237c-0.15-0.156-0.227-0.344-0.227-0.554
			s0.076-0.393,0.227-0.554C185.211,76.46,185.383,76.385,185.582,76.385z"/>
		<path fill="#FFFFFF" d="M197.29,86.947h-1.14c-0.098-0.312-0.141-0.726-0.141-1.237c-0.656,0.958-1.543,1.432-2.662,1.432
			c-0.575,0-1.07-0.199-1.506-0.604c-0.436-0.408-0.656-0.93-0.656-1.564c0-0.377,0.081-0.71,0.227-1
			c0.155-0.291,0.376-0.533,0.672-0.731c0.302-0.199,0.65-0.36,1.081-0.474c0.42-0.113,0.92-0.193,1.501-0.236l1.285-0.103v-0.366
			c0-1.316-0.613-1.979-1.84-1.979c-0.29,0-0.661,0.064-1.103,0.193c-0.446,0.124-0.822,0.274-1.146,0.441l-0.301-0.822
			c1.049-0.533,2.017-0.802,2.915-0.802c1.748,0,2.619,0.925,2.619,2.774v3.292C197.096,85.834,197.155,86.426,197.29,86.947z
			 M195.951,84.673V83.28c-1.038,0.091-1.748,0.182-2.13,0.263c-0.388,0.081-0.721,0.231-1.006,0.452
			c-0.279,0.221-0.419,0.521-0.419,0.898c0,0.344,0.118,0.618,0.365,0.828c0.231,0.209,0.543,0.316,0.914,0.316
			c0.409,0,0.813-0.117,1.21-0.365C195.295,85.431,195.644,85.098,195.951,84.673z"/>
		<polygon fill="#FFFFFF" points="205.583,86.947 202.442,86.947 202.442,77.558 200.441,77.558 200.441,76.567 203.593,76.567 
			203.593,85.952 205.583,85.952 		"/>
		<path fill="#FFFFFF" d="M7.621,104.286c-0.85,0.624-1.791,0.936-2.823,0.936c-1.35,0-2.372-0.457-3.065-1.371
			c-0.694-0.914-1.044-2.254-1.044-4.012c0-1.705,0.334-3.027,1.012-3.975c0.672-0.946,1.705-1.42,3.098-1.42
			c0.5,0,1,0.064,1.489,0.188c0.49,0.134,0.883,0.302,1.184,0.517l-0.398,0.946c-0.688-0.393-1.446-0.592-2.274-0.592
			c-0.946,0-1.656,0.35-2.13,1.049c-0.463,0.694-0.699,1.791-0.699,3.286c0,2.888,0.941,4.324,2.829,4.324
			c0.715,0,1.248-0.146,1.613-0.452v-2.56H4.54v-1.039h3.081V104.286L7.621,104.286z"/>
		<path fill="#FFFFFF" d="M16.473,105.023h-1.141c-0.091-0.307-0.14-0.721-0.14-1.237c-0.65,0.957-1.543,1.436-2.662,1.436
			c-0.57,0-1.075-0.204-1.506-0.607c-0.436-0.403-0.65-0.925-0.65-1.564c0-0.377,0.075-0.711,0.231-1.001
			c0.15-0.29,0.371-0.532,0.667-0.731c0.295-0.199,0.655-0.354,1.075-0.468c0.425-0.118,0.92-0.198,1.5-0.241l1.286-0.103v-0.366
			c0-1.317-0.613-1.974-1.84-1.974c-0.29,0-0.65,0.06-1.097,0.188c-0.446,0.123-0.823,0.269-1.146,0.446l-0.302-0.823
			c1.044-0.537,2.018-0.807,2.915-0.807c1.743,0,2.619,0.926,2.619,2.775v3.297C16.285,103.91,16.344,104.501,16.473,105.023z
			 M15.135,102.748v-1.388c-1.033,0.092-1.743,0.184-2.13,0.258c-0.382,0.082-0.716,0.237-1,0.453
			c-0.28,0.225-0.42,0.521-0.42,0.897c0,0.345,0.113,0.624,0.354,0.833c0.242,0.216,0.549,0.318,0.92,0.318
			c0.409,0,0.817-0.124,1.216-0.366C14.478,103.512,14.828,103.179,15.135,102.748z"/>
		<path fill="#FFFFFF" d="M20.566,98.354c0.253-0.355,0.597-0.641,1.032-0.855c0.431-0.215,0.888-0.322,1.372-0.322
			c0.893,0,1.586,0.354,2.081,1.07c0.5,0.715,0.753,1.656,0.753,2.823c0,1.183-0.269,2.173-0.796,2.964
			c-0.532,0.795-1.242,1.188-2.124,1.188c-0.479,0-0.926-0.117-1.34-0.354s-0.742-0.554-0.984-0.946v1.103h-1.146v-10.38h1.146
			v3.711H20.566z M20.566,99.495v3.184c0.215,0.43,0.506,0.79,0.871,1.08c0.371,0.291,0.753,0.431,1.146,0.431
			c0.613,0,1.108-0.29,1.469-0.882c0.365-0.586,0.548-1.313,0.548-2.173c0-0.882-0.172-1.597-0.521-2.146
			c-0.344-0.549-0.834-0.823-1.457-0.823C21.814,98.166,21.131,98.606,20.566,99.495z"/>
		<path fill="#FFFFFF" d="M32.452,105.023h-1.151v-6.669h-2.259v-0.995h3.41V105.023z M31.892,94.46
			c0.215,0,0.398,0.076,0.554,0.232c0.15,0.15,0.227,0.338,0.227,0.554c0,0.226-0.076,0.414-0.227,0.569
			c-0.15,0.15-0.333,0.227-0.554,0.227c-0.199,0-0.377-0.081-0.538-0.236c-0.15-0.162-0.226-0.345-0.226-0.56
			c0-0.21,0.075-0.394,0.226-0.549C31.515,94.536,31.688,94.46,31.892,94.46z"/>
		<path fill="#FFFFFF" d="M43.401,105.023h-1.14v-4.916c0-0.683-0.113-1.173-0.328-1.479c-0.221-0.307-0.564-0.463-1.027-0.463
			c-0.704,0-1.457,0.436-2.265,1.313v5.545h-1.146v-7.664h1.146v1.124c0.823-0.871,1.694-1.307,2.604-1.307
			c1.441,0,2.156,0.865,2.156,2.603V105.023z"/>
		<path fill="#FFFFFF" d="M52.674,101.226h-5.26c0,0.872,0.252,1.588,0.753,2.152c0.505,0.564,1.118,0.844,1.85,0.844
			c0.699,0,1.414-0.123,2.156-0.377l0.205,0.92c-0.684,0.307-1.474,0.457-2.377,0.457c-1.135,0-2.055-0.365-2.749-1.097
			c-0.699-0.731-1.043-1.716-1.043-2.958c0-1.215,0.307-2.184,0.936-2.904c0.624-0.726,1.437-1.086,2.426-1.086
			c0.882,0,1.619,0.333,2.21,1.006c0.598,0.672,0.894,1.564,0.894,2.688V101.226z M51.42,100.29c0-0.597-0.183-1.102-0.554-1.511
			c-0.376-0.409-0.79-0.613-1.253-0.613c-0.592,0-1.086,0.199-1.474,0.592c-0.393,0.388-0.607,0.903-0.65,1.532H51.42z"/>
		<path fill="#FFFFFF" d="M61.557,104.679c-0.769,0.355-1.521,0.527-2.27,0.527c-1.371,0-2.054-0.721-2.054-2.173v-4.679h-1.469
			v-0.995h1.469v-2.098h1.113v2.098h2.608v0.995h-2.608v4.383c0,0.463,0.107,0.828,0.312,1.081c0.21,0.259,0.489,0.388,0.839,0.388
			c0.63,0,1.248-0.141,1.861-0.42L61.557,104.679z"/>
		<path fill="#FFFFFF" d="M70.755,101.226H65.5c0,0.872,0.248,1.588,0.748,2.152c0.505,0.564,1.118,0.844,1.855,0.844
			c0.693,0,1.409-0.123,2.151-0.377l0.198,0.92c-0.678,0.307-1.468,0.457-2.366,0.457c-1.14,0-2.055-0.365-2.754-1.097
			c-0.698-0.731-1.043-1.716-1.043-2.958c0-1.215,0.313-2.184,0.936-2.904c0.624-0.726,1.431-1.086,2.426-1.086
			c0.882,0,1.624,0.333,2.216,1.006c0.586,0.672,0.888,1.564,0.888,2.688V101.226z M69.507,100.29c0-0.597-0.188-1.102-0.564-1.511
			c-0.366-0.409-0.785-0.613-1.248-0.613c-0.592,0-1.086,0.199-1.474,0.592c-0.393,0.388-0.607,0.903-0.65,1.532H69.507z"/>
		<path fill="#FFFFFF" d="M88.954,97.359l-2.904,7.664c-0.425,1.129-0.839,1.914-1.259,2.36c-0.408,0.447-0.882,0.673-1.414,0.673
			c-0.474,0-0.936-0.092-1.398-0.259l0.193-0.92c0.371,0.113,0.705,0.173,1.001,0.173c0.414,0,0.747-0.156,1.017-0.474
			c0.263-0.322,0.526-0.844,0.796-1.57l-2.872-7.647h1.247l2.173,6.109l2.168-6.109H88.954L88.954,97.359z"/>
		<path fill="#FFFFFF" d="M107.852,105.023h-1.264l-1.151-3.636h-3.404l-1.161,3.636h-1.253l3.394-10.38h1.452L107.852,105.023z
			 M105.094,100.339l-1.36-4.297l-1.355,4.297H105.094z"/>
		<path fill="#FFFFFF" d="M115.726,105.023h-1.141v-4.916c0-0.683-0.113-1.173-0.328-1.479c-0.221-0.307-0.564-0.463-1.027-0.463
			c-0.699,0-1.457,0.436-2.259,1.313v5.545h-1.15v-7.664h1.15v1.124c0.823-0.871,1.694-1.307,2.604-1.307
			c1.436,0,2.151,0.865,2.151,2.603V105.023z"/>
		<path fill="#FFFFFF" d="M124.96,105.023h-1.135c-0.091-0.307-0.145-0.721-0.145-1.237c-0.651,0.957-1.538,1.436-2.662,1.436
			c-0.57,0-1.07-0.204-1.501-0.607c-0.436-0.403-0.65-0.925-0.65-1.564c0-0.377,0.069-0.711,0.226-1.001
			c0.15-0.29,0.371-0.532,0.667-0.731s0.65-0.354,1.075-0.468c0.425-0.118,0.92-0.198,1.501-0.241l1.291-0.103v-0.366
			c0-1.317-0.619-1.974-1.84-1.974c-0.29,0-0.656,0.06-1.103,0.188c-0.446,0.123-0.822,0.269-1.146,0.446l-0.296-0.823
			c1.044-0.537,2.012-0.807,2.91-0.807c1.747,0,2.619,0.926,2.619,2.775v3.297C124.772,103.91,124.837,104.501,124.96,105.023z
			 M123.627,102.748v-1.388c-1.038,0.092-1.748,0.184-2.13,0.258c-0.393,0.082-0.721,0.237-1.006,0.453
			c-0.28,0.225-0.42,0.521-0.42,0.897c0,0.345,0.118,0.624,0.36,0.833c0.237,0.216,0.549,0.318,0.92,0.318
			c0.403,0,0.807-0.124,1.21-0.366S123.32,103.179,123.627,102.748z M124.041,94.24l-2.302,2.21h-0.823l1.457-2.21H124.041z"/>
		<polygon fill="#FFFFFF" points="133.253,105.023 130.118,105.023 130.118,95.633 128.117,95.633 128.117,94.644 131.263,94.644 
			131.263,104.028 133.253,104.028 		"/>
		<path fill="#FFFFFF" d="M140.938,105.023h-1.146v-6.669h-2.259v-0.995h3.404V105.023z M140.379,94.46
			c0.216,0,0.403,0.076,0.555,0.232c0.15,0.15,0.226,0.338,0.226,0.554c0,0.226-0.07,0.414-0.226,0.569
			c-0.146,0.15-0.334,0.227-0.555,0.227c-0.198,0-0.376-0.081-0.532-0.236c-0.156-0.162-0.231-0.345-0.231-0.56
			c0-0.21,0.075-0.394,0.231-0.549C140.003,94.536,140.18,94.46,140.379,94.46z"/>
		<path fill="#FFFFFF" d="M151.093,98.456c-0.646-0.215-1.248-0.316-1.818-0.316c-0.624,0-1.118,0.102-1.479,0.312
			c-0.366,0.21-0.544,0.483-0.544,0.833c0,0.221,0.081,0.414,0.248,0.582c0.167,0.16,0.5,0.316,1,0.457l1.098,0.316
			c0.505,0.141,0.914,0.313,1.236,0.512c0.317,0.199,0.56,0.44,0.716,0.721c0.155,0.279,0.242,0.607,0.242,0.984
			c0,0.726-0.313,1.307-0.92,1.73c-0.613,0.426-1.394,0.641-2.34,0.641s-1.721-0.145-2.334-0.43l0.226-0.996
			c0.635,0.307,1.329,0.457,2.061,0.457c0.64,0,1.156-0.117,1.554-0.354c0.403-0.241,0.603-0.554,0.603-0.946
			c0-0.264-0.103-0.5-0.296-0.71c-0.199-0.204-0.672-0.425-1.403-0.651c-0.592-0.182-1.027-0.316-1.308-0.408
			c-0.279-0.092-0.543-0.226-0.779-0.398c-0.236-0.177-0.425-0.393-0.554-0.634c-0.118-0.242-0.178-0.522-0.178-0.823
			c0-0.667,0.279-1.188,0.866-1.576c0.575-0.387,1.344-0.58,2.302-0.58c0.612,0,1.301,0.107,2.054,0.312L151.093,98.456z"/>
		<path fill="#FFFFFF" d="M159.025,105.023h-1.151v-6.669h-2.259v-0.995h3.41V105.023z M158.46,94.46
			c0.216,0,0.398,0.076,0.555,0.232c0.15,0.15,0.226,0.338,0.226,0.554c0,0.226-0.07,0.414-0.221,0.569
			c-0.15,0.15-0.333,0.227-0.56,0.227c-0.198,0-0.376-0.081-0.532-0.236c-0.15-0.162-0.231-0.345-0.231-0.56
			c0-0.21,0.081-0.394,0.231-0.549C158.084,94.536,158.261,94.46,158.46,94.46z"/>
		<path fill="#FFFFFF" d="M169.168,98.456c-0.64-0.215-1.242-0.316-1.813-0.316c-0.624,0-1.113,0.102-1.479,0.312
			c-0.366,0.21-0.543,0.483-0.543,0.833c0,0.221,0.08,0.414,0.247,0.582c0.172,0.16,0.506,0.316,1,0.457l1.098,0.316
			c0.505,0.141,0.914,0.313,1.236,0.512c0.317,0.199,0.555,0.44,0.716,0.721c0.155,0.279,0.242,0.607,0.242,0.984
			c0,0.726-0.313,1.307-0.926,1.73c-0.612,0.426-1.388,0.641-2.334,0.641s-1.721-0.145-2.334-0.43l0.221-0.996
			c0.646,0.307,1.334,0.457,2.065,0.457c0.64,0,1.156-0.117,1.56-0.354c0.397-0.241,0.597-0.554,0.597-0.946
			c0-0.264-0.097-0.5-0.296-0.71c-0.199-0.204-0.661-0.425-1.398-0.651c-0.597-0.182-1.038-0.316-1.312-0.408
			c-0.28-0.092-0.544-0.226-0.78-0.398c-0.242-0.177-0.425-0.393-0.549-0.634c-0.123-0.242-0.188-0.522-0.188-0.823
			c0-0.667,0.29-1.188,0.865-1.576c0.581-0.387,1.345-0.58,2.308-0.58c0.618,0,1.301,0.107,2.054,0.312L169.168,98.456z"/>
	</g>
</g>
</svg>
